<svg id="Слой_1" data-name="Слой 1" xmlns="http://www.w3.org/2000/svg" viewBox="0 0 562.86 562.86">
  <defs>
    <style>
      .cls-1 {
        fill: #a4a4a4;
      }
    </style>
  </defs>
  <title>search</title>
  <path class="cls-1" d="M755.76,745.55,620.44,610.24A236.41,236.41,0,0,0,674.2,459.87c0-130.95-106.25-237.2-237.2-237.2S199.79,328.92,199.79,459.87,305.93,697.08,437,697.08a235.88,235.88,0,0,0,150.24-53.65L722.56,778.64a23.44,23.44,0,1,0,33.2-33.09ZM437,649.87c-104.88,0-190.11-85.24-190.11-190S332.12,269.77,437,269.77s190.1,85.34,190.1,190.1S541.76,649.87,437,649.87Z" transform="translate(-199.79 -222.67)"/>
</svg>
